<?xml version="1.0" encoding="UTF-8"?>
<!DOCTYPE svg PUBLIC "-//W3C//DTD SVG 1.1//EN" "http://www.w3.org/Graphics/SVG/1.1/DTD/svg11.dtd">
<!-- Creator: CorelDRAW -->
<svg xmlns="http://www.w3.org/2000/svg" xml:space="preserve" width="2048px" height="2048px" style="shape-rendering:geometricPrecision; text-rendering:geometricPrecision; image-rendering:optimizeQuality; fill-rule:evenodd; clip-rule:evenodd"
viewBox="0 0 2048 2048"
 xmlns:xlink="http://www.w3.org/1999/xlink">
 <defs>
  <style type="text/css">
   <![CDATA[
    .fil2 {fill:none}
    .fil7 {fill:#0288D1}
    .fil6 {fill:#039BE5}
    .fil5 {fill:#29B6F6}
    .fil3 {fill:#4FC3F7}
    .fil4 {fill:#81D4FA}
    .fil1 {fill:#90A4AE}
    .fil0 {fill:#CFD8DC}
   ]]>
  </style>
   <clipPath id="id0">
    <path d="M1024 0c565.539,0 1024,458.461 1024,1024 0,565.539 -458.461,1024 -1024,1024 -565.539,0 -1024,-458.461 -1024,-1024 0,-565.539 458.461,-1024 1024,-1024z"/>
   </clipPath>
 </defs>
 <g id="Layer_x0020_1">
  <metadata id="CorelCorpID_0Corel-Layer"/>
  <path class="fil0" d="M1024 0c565.539,0 1024,458.461 1024,1024 0,565.539 -458.461,1024 -1024,1024 -565.539,0 -1024,-458.461 -1024,-1024 0,-565.539 458.461,-1024 1024,-1024z"/>
  <g style="clip-path:url(#id0)">
   <g id="_461729672">
    <g>
     <polygon id="_4801075361" class="fil1" points="1234.13,533.926 2370.01,1669.81 2370.01,2066.53 1234.13,930.652 "/>
     <polygon id="_480111760" class="fil1" points="1584,953.989 2719.88,2089.87 2719.88,2649.96 1584,1514.07 "/>
     <polygon id="_480102976" class="fil1" points="1584,1514.07 2719.88,2649.96 2719.88,2673.29 1584,1537.41 "/>
     <polygon id="_480103600" class="fil1" points="1584,1537.41 2719.88,2673.29 2696.54,2673.29 1560.66,1537.41 "/>
     <polygon id="_480102928" class="fil1" points="1560.66,1537.41 2696.54,2673.29 2544.89,2673.29 1409,1537.41 "/>
     <polygon id="_480114976" class="fil1" points="1409,1537.41 2544.89,2673.29 2544.85,2673.29 1408.97,1537.41 "/>
     <polygon id="_480133576" class="fil1" points="1408.97,1537.41 2544.85,2673.29 2393.17,2673.29 1257.28,1537.41 "/>
     <polygon id="_480126712" class="fil1" points="1257.28,1537.41 2393.17,2673.29 2370.01,2673.29 1234.13,1537.41 "/>
     <polygon id="_480104680" class="fil1" points="1234.13,1537.41 2370.01,2673.29 2370.01,2673.31 1234.13,1537.43 "/>
     <polygon id="_480122680" class="fil1" points="1234.13,1537.43 2370.01,2673.31 2346.66,2673.31 1210.78,1537.43 "/>
     <polygon id="_480129904" class="fil1" points="1210.78,1537.43 2346.66,2673.31 2171.65,2673.31 1035.77,1537.43 "/>
     <polygon id="_480126520" class="fil1" points="1035.77,1537.43 2171.65,2673.31 2171.63,2673.31 1035.75,1537.43 "/>
     <polygon id="_480134512" class="fil1" points="1035.75,1537.43 2171.63,2673.31 1996.61,2673.31 860.725,1537.43 "/>
     <polygon id="_480133096" class="fil1" points="837.37,1537.41 1973.25,2673.29 1951.38,2673.29 815.495,1537.41 "/>
     <polygon id="_480102808" class="fil1" points="860.725,1537.43 1996.61,2673.31 1973.25,2673.31 837.37,1537.43 "/>
     <polygon id="_480107632" class="fil1" points="815.495,1537.41 1951.38,2673.29 1786.6,2673.29 650.722,1537.41 "/>
     <polygon id="_480127168" class="fil1" points="650.722,1537.41 1786.6,2673.29 1786.58,2673.29 650.698,1537.41 "/>
     <polygon id="_480133504" class="fil1" points="650.698,1537.41 1786.58,2673.29 1621.78,2673.29 485.894,1537.41 "/>
     <polygon id="_480119848" class="fil1" points="485.894,1537.41 1621.78,2673.29 1599.88,2673.29 463.999,1537.41 "/>
     <polygon id="_480129208" class="fil1" points="1234.13,510.572 2370.01,1646.45 2370.01,1669.81 1234.13,533.926 "/>
     <polygon id="_480129424" class="fil1" points="1584,930.652 2719.88,2066.53 2719.88,2089.87 1584,953.989 "/>
    </g>
    <polygon id="_461750000" class="fil1" points="1408.97,930.652 1409.83,930.652 1560.66,930.652 1584,930.652 1584,953.989 1584,1514.07 1584,1537.41 1560.66,1537.41 1409,1537.41 1408.97,1537.41 1257.28,1537.41 1234.13,1537.41 1234.13,1537.43 1210.78,1537.43 1035.77,1537.43 1035.75,1537.43 860.725,1537.43 837.37,1537.43 837.37,1537.41 815.495,1537.41 650.722,1537.41 650.698,1537.41 485.894,1537.41 463.999,1537.41 463.999,1514.07 463.999,813.968 463.999,790.631 485.894,790.631 650.698,790.631 651.467,790.631 815.495,790.631 837.37,790.631 837.37,533.926 837.37,510.572 860.725,510.572 1035.75,510.572 1036.56,510.572 1210.78,510.572 1234.13,510.572 1234.13,533.926 1234.13,930.652 1257.28,930.652 "/>
   </g>
  </g>
  <path class="fil2" d="M1024 0c565.539,0 1024,458.461 1024,1024 0,565.539 -458.461,1024 -1024,1024 -565.539,0 -1024,-458.461 -1024,-1024 0,-565.539 458.461,-1024 1024,-1024z"/>
  <polygon class="fil3" points="1408.97,930.652 1409.83,930.652 1560.66,930.652 1584,930.652 1584,953.989 1584,1514.07 1584,1537.41 1560.66,1537.41 1409,1537.41 1408.97,1537.41 "/>
  <polygon class="fil4" points="1257.28,930.652 1408.97,930.652 1408.97,1537.41 1257.28,1537.41 1233.95,1537.41 1233.95,1514.07 1233.95,953.989 1233.95,930.652 "/>
  <polygon class="fil5" points="1035.75,1537.43 860.725,1537.43 837.37,1537.43 837.37,1514.07 837.37,533.926 837.37,510.572 860.725,510.572 1035.75,510.572 "/>
  <polygon class="fil6" points="1234.13,533.926 1234.13,1514.07 1234.13,1537.43 1210.78,1537.43 1035.77,1537.43 1035.75,1537.43 1035.75,510.572 1036.56,510.572 1210.78,510.572 1234.13,510.572 "/>
  <polygon class="fil4" points="650.698,1537.41 485.894,1537.41 463.999,1537.41 463.999,1514.07 463.999,813.968 463.999,790.631 485.894,790.631 650.698,790.631 "/>
  <polygon class="fil3" points="837.389,813.968 837.389,1514.07 837.389,1537.41 815.495,1537.41 650.722,1537.41 650.698,1537.41 650.698,790.631 651.467,790.631 815.495,790.631 837.389,790.631 "/>
  <polygon class="fil6" points="697.368,1094.13 767.378,1094.13 767.378,1164.08 697.368,1164.08 "/>
  <polygon class="fil5" points="534.01,1094.13 604.02,1094.13 604.02,1164.08 534.01,1164.08 "/>
  <polygon class="fil6" points="697.368,977.384 767.378,977.384 767.378,1047.34 697.368,1047.34 "/>
  <polygon class="fil5" points="534.01,977.384 604.02,977.384 604.02,1047.34 534.01,1047.34 "/>
  <polygon class="fil6" points="697.368,860.643 767.378,860.643 767.378,930.597 697.368,930.597 "/>
  <polygon class="fil5" points="534.01,860.643 604.02,860.643 604.02,930.597 534.01,930.597 "/>
  <polygon class="fil5" points="1303.96,1024.01 1373.97,1024.01 1373.97,1093.96 1303.96,1093.96 "/>
  <polygon class="fil6" points="1443.98,1024.01 1513.99,1024.01 1513.99,1093.96 1443.98,1093.96 "/>
  <polygon class="fil6" points="1443.98,1164.08 1513.99,1164.08 1513.99,1234.03 1443.98,1234.03 "/>
  <polygon class="fil5" points="1303.96,1164.08 1373.97,1164.08 1373.97,1234.03 1303.96,1234.03 "/>
  <polygon class="fil6" points="907.398,580.601 977.409,580.601 977.409,650.555 907.398,650.555 "/>
  <polygon class="fil7" points="1094.09,930.711 1164.1,930.711 1164.1,1000.66 1094.09,1000.66 "/>
  <polygon class="fil6" points="907.398,930.711 977.409,930.711 977.409,1000.66 907.398,1000.66 "/>
  <polygon class="fil7" points="1094.09,814.084 1164.1,814.084 1164.1,884.037 1094.09,884.037 "/>
  <polygon class="fil6" points="907.398,814.084 977.409,814.084 977.409,884.037 907.398,884.037 "/>
  <polygon class="fil7" points="1094.09,697.342 1164.1,697.342 1164.1,767.297 1094.09,767.297 "/>
  <polygon class="fil6" points="907.398,697.342 977.409,697.342 977.409,767.297 907.398,767.297 "/>
  <polygon class="fil7" points="1094.09,580.601 1164.1,580.601 1164.1,650.555 1094.09,650.555 "/>
 </g>
</svg>
